<?xml version="1.0" encoding="UTF-8"?>
<svg id="Warstwa_1" data-name="Warstwa 1" xmlns="http://www.w3.org/2000/svg" version="1.1" viewBox="0 0 630.2 226.8">
  <defs>
    <style>
      .cls-1 {
        fill: #fff;
        fill-rule: evenodd;
        stroke-width: 0px;
      }
    </style>
  </defs>
  <path class="cls-1" d="M80.7,10.1C39.7,58.2.4,117.9,0,162.6c-.2,16.8,5.2,31.5,18.1,42.6,18.5,16,38.9,21.6,59.2,21.7,29.7,0,59.1-11.9,82.2-21.2C198.3,190.1,627.6,3.7,627.6,3.7c4.1-2.1,3.4-4.7-1.8-3.4-2.1.5-467.3,126.6-467.3,126.6-8.8,2.5-17.9,3.8-27.1,3.9-35.8.2-67.6-19.6-67.3-61.5,0-16.4,5.1-36.1,16.7-59.3h0Z"/>
</svg>