<?xml version="1.0" encoding="UTF-8"?>
<svg xmlns="http://www.w3.org/2000/svg" xmlns:svg="http://www.w3.org/2000/svg" xmlns:sodipodi="http://sodipodi.sourceforge.net/DTD/sodipodi-0.dtd" xmlns:rdf="http://www.w3.org/1999/02/22-rdf-syntax-ns#" xmlns:ns1="http://sozi.baierouge.fr" xmlns:inkscape="http://www.inkscape.org/namespaces/inkscape" xmlns:dc="http://purl.org/dc/elements/1.1/" xmlns:cc="http://creativecommons.org/ns#" version="1.1" viewBox="0 0 600 316">
  <defs>
    <style>
      .cls-1 {
        fill: #fff;
        stroke-width: 0px;
      }
    </style>
  </defs>
  <g id="svg3176" inkscape:version="0.47 r22583" sodipodi:docname="American_Flag.pdf">
    <sodipodi:namedview id="namedview3178" bordercolor="#666666" borderopacity="1" gridtolerance="10" guidetolerance="10" inkscape:current-layer="svg3176" inkscape:cx="244.84472" inkscape:cy="158" inkscape:guide-bbox="true" inkscape:pageopacity="0" inkscape:pageshadow="2" inkscape:window-height="915" inkscape:window-maximized="0" inkscape:window-width="1657" inkscape:window-x="0" inkscape:window-y="0" inkscape:zoom="2.0886076" objecttolerance="10" pagecolor="#ffffff" showgrid="false" showguides="true"/>
    <path id="path3188" class="cls-1" d="M.9,304.1v-12h600v24H.9s0-12,0-12ZM.9,255.1v-12h600v24H.9s0-12,0-12ZM.9,206.6v-11.5h600v23H.9s0-11.5,0-11.5ZM.9,85.1V.1h600v24H240.9v25h360v24H240.9v25h360v23H240.9v25h360v24H.9s0-85,0-85ZM19.2,158.3c1.6-1.3,1.9-1.3,3.5,0,3.7,3.1,4.2,3.1,3.1-.3-1-3-.9-3.4,1.8-5.5l2.9-2.3h-3.8c-3.4,0-3.8-.3-4.4-3-.3-1.6-.9-3-1.4-3s-1,1.4-1.4,3c-.5,2.7-1,3-4.4,3h-3.8s2.9,2.3,2.9,2.3c2.7,2.1,2.8,2.6,1.8,5.5-1.2,3.4-.6,3.5,3.1.3h0ZM59.2,158.3c1.6-1.3,1.9-1.3,3.5,0,3.7,3.1,4.2,3.1,3.1-.3-1-3-.9-3.4,1.8-5.5l2.9-2.3h-3.8c-3.4,0-3.8-.3-4.4-3-.3-1.6-.9-3-1.3-3s-1,1.4-1.3,3c-.5,2.7-1,3-4.4,3h-3.8s2.9,2.3,2.9,2.3c2.7,2.1,2.8,2.6,1.8,5.5-1.2,3.4-.6,3.5,3.1.3h0ZM99.2,158.3c1.6-1.3,1.9-1.3,3.5,0,3.7,3.1,4.2,3.1,3.1-.3-1-3-.9-3.4,1.8-5.5l2.9-2.3h-3.8c-3.4,0-3.8-.3-4.4-3-.3-1.6-.9-3-1.3-3s-1,1.4-1.3,3c-.5,2.7-1,3-4.4,3h-3.8s2.9,2.3,2.9,2.3c2.7,2.1,2.8,2.6,1.8,5.5-1.2,3.4-.6,3.5,3.1.3ZM139.2,158.3c1.6-1.3,1.9-1.3,3.5,0,3.7,3.1,4.2,3.1,3.1-.3-1-3-.9-3.4,1.8-5.5l2.9-2.3h-3.8c-3.4,0-3.8-.3-4.4-3-.3-1.6-.9-3-1.4-3s-1,1.4-1.4,3c-.5,2.7-1,3-4.4,3h-3.8s2.9,2.3,2.9,2.3c2.7,2.1,2.8,2.6,1.8,5.5-1.2,3.4-.6,3.5,3.1.3ZM179.2,158.3c1.6-1.3,1.9-1.3,3.5,0,3.7,3.1,4.2,3.1,3.1-.3-1-3-.9-3.4,1.8-5.5l2.9-2.3h-3.8c-3.4,0-3.8-.3-4.4-3-.3-1.6-.9-3-1.4-3s-1,1.4-1.4,3c-.5,2.7-1,3-4.4,3h-3.8s2.9,2.3,2.9,2.3c2.7,2.1,2.8,2.6,1.8,5.5-1.2,3.4-.6,3.5,3.1.3ZM219.2,158.3c1.6-1.3,1.9-1.3,3.5,0,3.7,3.1,4.2,3.1,3.1-.3-1-3-.9-3.4,1.8-5.5l2.9-2.3h-3.8c-3.4,0-3.8-.3-4.4-3-.3-1.6-.9-3-1.4-3s-1,1.4-1.4,3c-.5,2.7-1,3-4.4,3h-3.8s2.9,2.3,2.9,2.3c2.7,2.1,2.8,2.6,1.8,5.5-1.2,3.4-.6,3.5,3.1.3ZM39.2,141.3c1.6-1.3,1.9-1.3,3.5,0,3.7,3.1,4.2,3.1,3.1-.3-1-3-.9-3.4,1.8-5.5l2.9-2.3h-3.7c-3.3,0-3.7-.3-4.3-3-.4-1.6-1-3-1.5-3s-1.1,1.4-1.5,3c-.6,2.7-1.1,3-4.3,3h-3.7s2.9,2.3,2.9,2.3c2.7,2.1,2.8,2.6,1.8,5.5-1.2,3.4-.6,3.5,3.1.3h0ZM79.2,141.3c1.6-1.3,1.9-1.3,3.5,0,3.7,3.1,4.2,3.1,3.1-.3-1-3-.9-3.4,1.8-5.5l2.9-2.3h-3.7c-3.3,0-3.7-.3-4.3-3-.4-1.6-1-3-1.5-3s-1.1,1.4-1.5,3c-.6,2.7-1.1,3-4.3,3h-3.7s2.9,2.3,2.9,2.3c2.7,2.1,2.8,2.6,1.8,5.5-1.2,3.4-.6,3.5,3.1.3h0ZM119.2,141.3c1.6-1.3,1.9-1.3,3.5,0,3.7,3.1,4.2,3.1,3.1-.3-1-3-.9-3.4,1.8-5.5l2.9-2.3h-3.7c-3.3,0-3.7-.3-4.3-3-.4-1.6-1-3-1.5-3s-1.1,1.4-1.5,3c-.6,2.7-1.1,3-4.3,3h-3.7s2.9,2.3,2.9,2.3c2.7,2.1,2.8,2.6,1.8,5.5-1.2,3.4-.6,3.5,3.1.3ZM159.2,141.3c1.6-1.3,1.9-1.3,3.5,0,3.7,3.1,4.2,3.1,3.1-.3-1-3-.9-3.4,1.8-5.5l2.9-2.3h-3.7c-3.3,0-3.7-.3-4.3-3-.4-1.6-1-3-1.5-3s-1.1,1.4-1.5,3c-.6,2.7-1.1,3-4.3,3h-3.7s2.9,2.3,2.9,2.3c2.7,2.1,2.8,2.6,1.8,5.5-1.2,3.4-.6,3.5,3.1.3ZM199.2,141.3c1.6-1.3,1.9-1.3,3.5,0,3.7,3.1,4.2,3.1,3.1-.3-1-3-.9-3.4,1.8-5.5l2.9-2.3h-3.7c-3.3,0-3.7-.3-4.3-3-.4-1.6-1-3-1.5-3s-1.1,1.4-1.5,3c-.6,2.7-1.1,3-4.3,3h-3.7s2.9,2.3,2.9,2.3c2.7,2.1,2.8,2.6,1.8,5.5-1.2,3.4-.6,3.5,3.1.3ZM19.2,124.3c1.6-1.3,1.9-1.3,3.5,0,3.7,3.1,4.2,3.1,3.1-.3-1-3-.9-3.4,1.8-5.5l2.9-2.3h-3.7c-3.3,0-3.7-.3-4.3-3-.4-1.7-1-3-1.5-3s-1.1,1.3-1.5,3c-.6,2.7-1.1,3-4.3,3h-3.7s2.9,2.3,2.9,2.3c2.7,2.1,2.8,2.6,1.8,5.5-1.2,3.4-.6,3.5,3.1.3h0ZM59.2,124.3c1.6-1.3,1.9-1.3,3.5,0,3.6,3.1,4.2,3,3.2-.4-.9-2.9-.7-3.5,1.8-5.5l2.8-2.2h-3.7c-3.3,0-3.7-.3-4.3-3-.4-1.7-1-3-1.5-3s-1.1,1.3-1.5,3c-.6,2.7-1.1,3-4.3,3h-3.7s2.9,2.3,2.9,2.3c2.7,2.1,2.8,2.6,1.8,5.5-1.2,3.4-.6,3.5,3.1.3h0ZM99.2,124.3c1.6-1.3,1.9-1.3,3.5,0,3.7,3.1,4.2,3.1,3.1-.3-1-3-.9-3.4,1.8-5.5l2.9-2.3h-3.7c-3.3,0-3.7-.3-4.3-3-.4-1.7-1-3-1.5-3s-1.1,1.3-1.5,3c-.6,2.7-1.1,3-4.3,3h-3.7s2.8,2.2,2.8,2.2c2.5,2,2.7,2.6,1.8,5.5-1,3.5-.5,3.5,3.2.4h0ZM139.2,124.3c1.6-1.3,1.9-1.3,3.5,0,3.6,3.1,4.2,3,3.2-.4-.9-2.9-.7-3.5,1.8-5.5l2.8-2.2h-3.7c-3.3,0-3.7-.3-4.3-3-.4-1.7-1-3-1.5-3s-1.1,1.3-1.5,3c-.6,2.7-1.1,3-4.3,3h-3.7s2.9,2.3,2.9,2.3c2.7,2.1,2.8,2.6,1.8,5.5-1.2,3.4-.6,3.5,3.1.3h0ZM179.2,124.3c1.6-1.3,1.9-1.3,3.5,0,3.7,3.1,4.2,3.1,3.1-.3-1-3-.9-3.4,1.8-5.5l2.9-2.3h-3.7c-3.3,0-3.7-.3-4.3-3-.4-1.7-1-3-1.5-3s-1.1,1.3-1.5,3c-.6,2.7-1.1,3-4.3,3h-3.7s2.8,2.2,2.8,2.2c2.5,2,2.7,2.6,1.8,5.5-1,3.5-.5,3.5,3.2.4h0ZM219.2,124.3c1.6-1.3,1.9-1.3,3.5,0,3.7,3.1,4.2,3.1,3.1-.3-1-3-.9-3.4,1.8-5.5l2.9-2.3h-3.7c-3.3,0-3.7-.3-4.3-3-.4-1.7-1-3-1.5-3s-1.1,1.3-1.5,3c-.6,2.7-1.1,3-4.3,3h-3.7s2.9,2.3,2.9,2.3c2.7,2.1,2.8,2.6,1.8,5.5-1.2,3.4-.6,3.5,3.1.3ZM39.2,107.3c1.6-1.3,1.9-1.3,3.5,0,3.7,3.1,4.2,3.1,3.1-.3-1-3-.9-3.4,1.8-5.5l2.9-2.3h-3.7c-3.3,0-3.7-.3-4.3-3-.4-1.7-1-3-1.5-3s-1.1,1.3-1.5,3c-.6,2.7-1.1,3-4.3,3h-3.7s2.9,2.3,2.9,2.3c2.7,2.1,2.8,2.6,1.8,5.5-1.2,3.4-.6,3.5,3.1.3h0ZM119.2,107.3c1.6-1.3,1.9-1.3,3.5,0,3.7,3.1,4.2,3.1,3.1-.3-1-3-.9-3.4,1.8-5.5l2.9-2.3h-3.7c-3.3,0-3.7-.3-4.3-3-.4-1.7-1-3-1.5-3s-1.1,1.3-1.5,3c-.6,2.7-1.1,3-4.3,3h-3.7s2.9,2.3,2.9,2.3c2.7,2.1,2.8,2.6,1.8,5.5-1.2,3.4-.6,3.5,3.1.3h0ZM199.2,107.3c1.6-1.3,1.9-1.3,3.5,0,3.7,3.1,4.2,3.1,3.1-.3-1-3-.9-3.4,1.8-5.5l2.9-2.3h-3.7c-3.3,0-3.7-.3-4.3-3-.4-1.7-1-3-1.5-3s-1.1,1.3-1.5,3c-.6,2.7-1.1,3-4.3,3h-3.7s2.9,2.3,2.9,2.3c2.7,2.1,2.8,2.6,1.8,5.5-1.2,3.4-.6,3.5,3.1.3h0ZM79.1,107.5c1.7-1.5,2-1.5,3.7,0,2.6,2.4,3.4,2,2.7-1.2-.5-2.4-.1-3.2,2.2-5l2.8-2.1h-3.7c-3.3,0-3.7-.4-4.3-3.1-.4-1.7-1-3-1.5-3s-1.1,1.3-1.5,3c-.6,2.7-1.1,3-4.3,3h-3.7s2.8,2.1,2.8,2.1c2.3,1.7,2.7,2.6,2.2,5-.7,3.3,0,3.6,2.7,1.2ZM159.1,107.5c1.7-1.5,2-1.5,3.7,0,2.6,2.4,3.4,2,2.7-1.2-.5-2.4-.1-3.2,2.2-5l2.8-2.1h-3.7c-3.3,0-3.7-.4-4.3-3.1-.4-1.7-1-3-1.5-3s-1.1,1.3-1.5,3c-.6,2.7-1.1,3-4.3,3h-3.7s2.8,2.1,2.8,2.1c2.3,1.7,2.7,2.6,2.2,5-.7,3.3,0,3.6,2.7,1.2h0ZM19.1,90.5c1.7-1.5,2-1.5,3.7,0,2.6,2.4,3.4,2,2.7-1.2-.5-2.4-.1-3.3,2.1-5l2.7-2.1h-3.6c-3.1,0-3.6-.4-4.2-3-.4-1.7-1-3-1.5-3s-1.1,1.3-1.5,3c-.6,2.6-1.1,3-4.2,3h-3.6l2.7,2.1c2.2,1.7,2.6,2.6,2.1,5-.7,3.3,0,3.6,2.7,1.2h0ZM59.1,90.5c1.7-1.5,2-1.5,3.7,0,2.6,2.4,3.4,2,2.7-1.2-.5-2.4-.1-3.3,2.1-5l2.7-2.1h-3.6c-3.1,0-3.6-.4-4.2-3-.4-1.7-1-3-1.5-3s-1.1,1.3-1.5,3c-.6,2.6-1.1,3-4.2,3h-3.6l2.7,2.1c2.2,1.7,2.6,2.6,2.1,5-.7,3.3,0,3.6,2.7,1.2h0ZM99.1,90.5c1.7-1.5,2-1.5,3.7,0,2.6,2.4,3.4,2,2.7-1.2-.5-2.4-.1-3.3,2.1-5l2.7-2.1h-3.6c-3.1,0-3.6-.4-4.2-3-.4-1.7-1-3-1.5-3s-1.1,1.3-1.5,3c-.6,2.6-1.1,3-4.2,3h-3.6l2.7,2.1c2.2,1.7,2.6,2.6,2.1,5-.7,3.3,0,3.6,2.7,1.2h0ZM139.1,90.5c1.7-1.5,2-1.5,3.7,0,2.6,2.4,3.4,2,2.7-1.2-.5-2.4-.1-3.3,2.1-5l2.7-2.1h-3.6c-3.1,0-3.6-.4-4.2-3-.4-1.7-1-3-1.5-3s-1.1,1.3-1.5,3c-.6,2.6-1.1,3-4.2,3h-3.6l2.7,2.1c2.2,1.7,2.6,2.6,2.1,5-.7,3.3,0,3.6,2.7,1.2h0ZM179.1,90.5c1.7-1.5,2-1.5,3.7,0,2.6,2.4,3.4,2,2.7-1.2-.5-2.4-.1-3.3,2.1-5l2.7-2.1h-3.6c-3.1,0-3.6-.4-4.2-3-.4-1.7-1-3-1.5-3s-1.1,1.3-1.5,3c-.6,2.6-1.1,3-4.2,3h-3.6l2.7,2.1c2.2,1.7,2.6,2.6,2.1,5-.7,3.3,0,3.6,2.7,1.2h0ZM219.1,90.5c1.7-1.5,2-1.5,3.7,0,2.6,2.4,3.4,2,2.7-1.2-.5-2.4-.1-3.3,2.1-5l2.7-2.1h-3.6c-3.1,0-3.6-.4-4.2-3-.4-1.7-1-3-1.5-3s-1.1,1.3-1.5,3c-.6,2.6-1.1,3-4.2,3h-3.6l2.7,2.1c2.2,1.7,2.6,2.6,2.1,5-.7,3.3,0,3.6,2.7,1.2h0ZM39.2,73.3c1.6-1.3,1.9-1.3,3.5,0,3.7,3.1,4.2,3.1,3.1-.3-1-2.9-.9-3.4,1.6-5.5l2.7-2.3h-3.5c-3,0-3.6-.4-4.1-3-.8-3.8-2.2-3.8-3,0-.6,2.6-1.1,3-4.1,3h-3.5l2.7,2.3c2.5,2.1,2.6,2.6,1.6,5.5-1.2,3.4-.6,3.5,3.1.3ZM79.2,73.3c1.6-1.3,1.9-1.3,3.5,0,3.7,3.1,4.2,3.1,3.1-.3-1-2.9-.9-3.4,1.6-5.5l2.7-2.3h-3.5c-3,0-3.6-.4-4.1-3-.8-3.8-2.2-3.8-3,0-.6,2.6-1.1,3-4.1,3h-3.5l2.7,2.3c2.5,2.1,2.6,2.6,1.6,5.5-1.2,3.4-.6,3.5,3.1.3ZM119.2,73.3c1.6-1.3,1.9-1.3,3.5,0,3.7,3.1,4.2,3.1,3.1-.3-1-2.9-.9-3.4,1.6-5.5l2.7-2.3h-3.5c-3,0-3.6-.4-4.1-3-.8-3.8-2.2-3.8-3,0-.6,2.6-1.1,3-4.1,3h-3.5l2.7,2.3c2.5,2.1,2.6,2.6,1.6,5.5-1.2,3.4-.6,3.5,3.1.3ZM159.2,73.3c1.6-1.3,1.9-1.3,3.5,0,3.7,3.1,4.2,3.1,3.1-.3-1-2.9-.9-3.4,1.6-5.5l2.7-2.3h-3.5c-3,0-3.6-.4-4.1-3-.8-3.8-2.2-3.8-3,0-.6,2.6-1.1,3-4.1,3h-3.5l2.7,2.3c2.5,2.1,2.6,2.6,1.6,5.5-1.2,3.4-.6,3.5,3.1.3ZM199.2,73.3c1.6-1.3,1.9-1.3,3.5,0,3.7,3.1,4.2,3.1,3.1-.3-1-2.9-.9-3.4,1.6-5.5l2.7-2.3h-3.5c-3,0-3.6-.4-4.1-3-.8-3.8-2.2-3.8-3,0-.6,2.6-1.1,3-4.1,3h-3.5l2.7,2.3c2.5,2.1,2.6,2.6,1.6,5.5-1.2,3.4-.6,3.5,3.1.3ZM23.9,57.1l3,2.1-1.1-3.2c-1-2.9-.9-3.4,1.6-5.5l2.7-2.3h-3.5c-3,0-3.6-.4-4.1-3-.8-3.8-2.2-3.8-3,0-.6,2.6-1.1,3-4.1,3h-3.5l2.7,2.3c2.5,2.1,2.6,2.6,1.6,5.5l-1.1,3.2,3-2.1,3-2.1,3,2.1h0ZM63.9,57.1l3,2.1-1.1-3.2c-1-2.9-.9-3.4,1.6-5.5l2.7-2.3h-3.5c-3,0-3.6-.4-4.1-3-.8-3.8-2.2-3.8-3,0-.6,2.6-1.1,3-4.1,3h-3.5l2.7,2.3c2.5,2.1,2.6,2.6,1.6,5.5l-1.1,3.2,3-2.1,3-2.1,3,2.1h0ZM103.9,57.1l3,2.1-1.1-3.2c-1-2.9-.9-3.4,1.6-5.5l2.7-2.3h-3.5c-3,0-3.6-.4-4.1-3-.8-3.8-2.2-3.8-3,0-.6,2.6-1.1,3-4.1,3h-3.5l2.7,2.3c2.5,2.1,2.6,2.6,1.6,5.5l-1.1,3.2,3-2.1,3-2.1,3,2.1h0ZM143.9,57.1l3,2.1-1.1-3.2c-1-2.9-.9-3.4,1.6-5.5l2.7-2.3h-3.5c-3,0-3.6-.4-4.1-3-.8-3.8-2.2-3.8-3,0-.6,2.6-1.1,3-4.1,3h-3.5l2.7,2.3c2.5,2.1,2.6,2.6,1.6,5.5l-1.1,3.2,3-2.1,3-2.1,3,2.1h0ZM183.9,57.1l3,2.1-1.1-3.2c-1-2.9-.9-3.4,1.6-5.5l2.7-2.3h-3.5c-3,0-3.6-.4-4.1-3-.8-3.8-2.2-3.8-3,0-.6,2.6-1.1,3-4.1,3h-3.5l2.7,2.3c2.5,2.1,2.6,2.6,1.6,5.5l-1.1,3.2,3-2.1,3-2.1,3,2.1h0ZM223.9,57.1l3,2.1-1.1-3.2c-1-2.9-.9-3.4,1.6-5.5l2.7-2.3h-3.5c-3,0-3.6-.4-4.1-3-.8-3.8-2.2-3.8-3,0-.6,2.6-1.1,3-4.1,3h-3.5l2.7,2.3c2.5,2.1,2.6,2.6,1.6,5.5l-1.1,3.2,3-2.1,3-2.1,3,2.1h0ZM39.1,39.5c1.7-1.5,2-1.5,3.7,0,2.6,2.4,3.4,2,2.7-1.2-.5-2.4-.1-3.3,2.1-5l2.7-2.1h-3.7c-3.3,0-3.7-.3-4.3-3-.3-1.6-.9-3-1.3-3s-1,1.4-1.3,3c-.5,2.7-1,3-4.3,3h-3.7l2.7,2.1c2.2,1.7,2.6,2.6,2.1,5-.7,3.3,0,3.6,2.7,1.2h0ZM79.1,39.5c1.7-1.5,2-1.5,3.7,0,2.6,2.4,3.4,2,2.7-1.2-.5-2.4-.1-3.3,2.1-5l2.7-2.1h-3.7c-3.3,0-3.7-.3-4.3-3-.3-1.6-.9-3-1.3-3s-1,1.4-1.3,3c-.5,2.7-1,3-4.3,3h-3.7l2.7,2.1c2.2,1.7,2.6,2.6,2.1,5-.7,3.3,0,3.6,2.7,1.2h0ZM119.1,39.5c1.7-1.5,2-1.5,3.7,0,2.6,2.4,3.4,2,2.7-1.2-.5-2.4-.1-3.3,2.1-5l2.7-2.1h-3.7c-3.3,0-3.7-.3-4.3-3-.3-1.6-.9-3-1.3-3s-1,1.4-1.3,3c-.5,2.7-1,3-4.3,3h-3.7l2.7,2.1c2.2,1.7,2.6,2.6,2.1,5-.7,3.3,0,3.6,2.7,1.2h0ZM159.1,39.5c1.7-1.5,2-1.5,3.7,0,2.6,2.4,3.4,2,2.7-1.2-.5-2.4-.1-3.3,2.1-5l2.7-2.1h-3.7c-3.3,0-3.7-.3-4.3-3-.3-1.6-.9-3-1.4-3s-1,1.4-1.4,3c-.5,2.7-1,3-4.3,3h-3.7l2.7,2.1c2.2,1.7,2.6,2.6,2.1,5-.7,3.3,0,3.6,2.7,1.2h0ZM199.1,39.5c1.7-1.5,2-1.5,3.7,0,2.6,2.4,3.4,2,2.7-1.2-.5-2.4-.1-3.3,2.1-5l2.7-2.1h-3.7c-3.3,0-3.7-.3-4.3-3-.3-1.6-.9-3-1.4-3s-1,1.4-1.4,3c-.5,2.7-1,3-4.3,3h-3.7l2.7,2.1c2.2,1.7,2.6,2.6,2.1,5-.7,3.3,0,3.6,2.7,1.2h0ZM23.5,22.8l2.6,1.7-.7-3.1c-.6-2.6-.2-3.4,2-5.2l2.7-2.1h-3.6c-3.1,0-3.6-.4-4.2-3-.8-3.8-2.2-3.8-3,0-.6,2.6-1.1,3-4.2,3h-3.6l2.7,2.1c2.3,1.8,2.6,2.6,2,5.2l-.7,3.1,2.6-1.7c2.5-1.6,2.8-1.6,5.2,0h0ZM63.5,22.8l2.6,1.7-.7-3.1c-.6-2.6-.2-3.4,2-5.2l2.7-2.1h-3.6c-3.1,0-3.6-.4-4.2-3-.8-3.8-2.2-3.8-3,0-.6,2.6-1.1,3-4.2,3h-3.6l2.7,2.1c2.3,1.8,2.6,2.6,2,5.2l-.7,3.1,2.6-1.7c2.5-1.6,2.8-1.6,5.2,0h0ZM103.5,22.8l2.6,1.7-.7-3.1c-.6-2.6-.2-3.4,2-5.2l2.7-2.1h-3.6c-3.1,0-3.6-.4-4.2-3-.8-3.8-2.2-3.8-3,0-.6,2.6-1.1,3-4.2,3h-3.6l2.7,2.1c2.3,1.8,2.6,2.6,2,5.2l-.7,3.1,2.6-1.7c2.5-1.6,2.8-1.6,5.2,0h0ZM143.5,22.8l2.6,1.7-.7-3.1c-.6-2.6-.2-3.4,2-5.2l2.7-2.1h-3.6c-3.1,0-3.6-.4-4.2-3-.8-3.8-2.2-3.8-3,0-.6,2.6-1.1,3-4.2,3h-3.6l2.7,2.1c2.3,1.8,2.6,2.6,2,5.2l-.7,3.1,2.6-1.7c2.5-1.6,2.8-1.6,5.2,0h0ZM183.5,22.8l2.6,1.7-.7-3.1c-.6-2.6-.2-3.4,2-5.2l2.7-2.1h-3.6c-3.1,0-3.6-.4-4.2-3-.8-3.8-2.2-3.8-3,0-.6,2.6-1.1,3-4.2,3h-3.6l2.7,2.1c2.3,1.8,2.6,2.6,2,5.2l-.7,3.1,2.6-1.7c2.5-1.6,2.8-1.6,5.2,0h0ZM223.5,22.8l2.6,1.7-.7-3.1c-.6-2.6-.2-3.4,2-5.2l2.7-2.1h-3.6c-3.1,0-3.6-.4-4.2-3-.8-3.8-2.2-3.8-3,0-.6,2.6-1.1,3-4.2,3h-3.6l2.7,2.1c2.3,1.8,2.6,2.6,2,5.2l-.7,3.1,2.6-1.7c2.5-1.6,2.8-1.6,5.2,0h0Z"/>
  </g>
</svg>