<?xml version="1.0" encoding="UTF-8"?>
<svg id="Warstwa_1" data-name="Warstwa 1" xmlns="http://www.w3.org/2000/svg" version="1.1" viewBox="0 0 2238.1 709.4">
  <defs>
    <style>
      .cls-1 {
        fill: #fff;
        fill-rule: evenodd;
        stroke-width: 0px;
      }
    </style>
  </defs>
  <path class="cls-1" d="M1139.4,196.6l70.5-100.3h207.3c-14.5,48.5-92.9,140.6-233.8,275.7-131.9,130.6-214,238-247.1,323.4h155.9l21.6-39.8,1.6-1.2v-1.3l2.1-4.6c54.3-90,127.3-177,218.9-260.4C1514.2,216.9,1603.7,90.5,1604.2,7.2h-441.1l-109.5,189.5h85.8ZM2172.6,110c41.5-34,63.4-67.2,65.5-99.1h-592.5c-12.4,50.6-30.3,94.5-55.5,132.3h311.4c5.8-12,11.6-20.7,17-27.4,4.1-5.8,12.8-7.5,26.1-5.8h228ZM1773.3,224l71.3-13.3,34.4-37.7h-306.4c-66.8,71.3-71.7,121.1-15.4,149.7,5.8.4,7.4-4.2,5-14.9-4.1-13.7-2.1-28.6,5.8-44.4,5.8-12.9,12.9-22,21.2-28.2h118.2l-118.2,135.6c-14.5,8.7-31.9,12.4-51.8,9.9h-136l-38.1,33.6h170c36.5,2.1,64.7-6.2,82.9-23.6l116.5-135.2c14.9-20.3,28.2-31.1,40.6-31.5h0ZM1031.2,194.6c13.3-99.5-11.2-160-73.4-182.4-73-28.2-155.5.8-247.9,87.5-33.2,31.5-63.9,67.6-93.7,108.2-23.6,31.1-41,58-51.4,80l-24.9,51c-19.5,41.5-34.4,82.1-44.8,122.3-34,123.6-15.7,201.9,54.3,234.3,70.9,32.7,153.4,7.9,247.1-75.5,56.4-51.4,102.8-107.4,140.6-168.3l25.3-43.5c34.4-66.3,57.2-135.1,67.6-207.7l1.2-5.8ZM685.4,330.1c24.9-48.1,57.6-99.9,96.6-153.8,61.4-86.7,107.4-123.6,138.1-112.8,46.4,17.4,12,126-102.4,326.7-29,48.1-64.3,99.1-105.3,153-63.4,79.6-107,114-131,101.6-24.9-13.3-17.8-64.7,21.6-154.2l82.5-160.4ZM552.3,192.5c13.7-99.1-11.2-159.6-73-182.4-73.4-27.8-155.9,2.1-247.5,88.3-33.2,31.1-64.3,67.2-94.1,107.8-23.6,31.1-41,58.1-51.4,80.4l-25.3,50.6c-19.1,41.5-34,82.1-44.8,121.9-33.6,124-14.9,202.3,55.5,234.6,70.1,32.7,152.6,7.5,245.9-75.4,56.4-51.8,103.7-107.4,141.4-168.3l24.9-43.5c34.4-66.3,56.8-135.6,67.6-207.3l.8-6.7h0ZM206.9,328.5c24.9-48.1,57.2-99.1,96.2-153.4,61.8-86.2,107.8-124,138.5-113.2,46.4,17.4,12,126.5-102.4,326.3-28.2,48.5-63.9,99.5-104.9,153.4-63.4,80-107.4,114-131.4,101.6-24.9-13.3-17.8-65.1,21.6-154.2l82.5-160.4h0Z"/>
</svg>